<svg xmlns="http://www.w3.org/2000/svg" viewBox="0 0 1873.91 349"><defs><style>.cls-1{fill:#333;}.cls-2{fill:none;stroke:#333;stroke-miterlimit:10;stroke-width:12px;}</style></defs><title>banner5</title><g id="Layer_2" data-name="Layer 2"><path class="cls-1" d="M469.18,242.2a72.73,72.73,0,0,0,40.26,12.24c27.2,0,44.07-15.5,44.07-38.08,0-20.67-10.61-32.64-37-43-29.65-10.34-47.33-25.57-47.33-50.59,0-26.93,22.3-46.51,53.31-46.51,17.14,0,30.19,4.62,36.45,8.7L554,95.86c-4.9-3.54-16.59-8.7-32.37-8.7-29.65,0-39.71,19-39.71,33.46,0,20.4,11.7,30.74,38.08,41.07,30.19,12.24,46.24,25.84,46.24,53.31,0,26.66-19,50.59-58.21,50.59-15.78,0-34.27-5.44-43.79-12.51Z"/><path class="cls-1" d="M676.15,231.59a234.31,234.31,0,0,0,1.9,31h-11.7l-1.9-18.77h-.82C657.38,253.9,643,265.59,622,265.59c-26.11,0-38.35-18.5-38.35-35.9,0-30.19,26.66-48.42,79.7-47.87v-3.26c0-13.06-2.45-38.9-33.46-38.62-11.42,0-23.39,3-32.64,9.79l-4.08-9.52c11.7-7.89,26.38-11.15,38.08-11.15,37.81,0,44.88,28.29,44.88,51.68Zm-12.78-38.9c-28.56-.82-66.1,3.54-66.1,34.82,0,18.77,12.51,27.2,26.11,27.2,21.76,0,34-13.33,38.63-26.11a28.3,28.3,0,0,0,1.36-7.89Z"/><path class="cls-1" d="M709.6,69.48h12.78V262.6H709.6Z"/><path class="cls-1" d="M777.05,103.21V132h37.26v10.34H777.05v84.86c0,16.59,5.17,27.2,19,27.2a47,47,0,0,0,15-2.18l1.63,10.06c-4.35,1.9-10.34,3.26-18.22,3.26-9.52,0-17.41-3.26-22.3-9.52-6-6.8-8.16-17.68-8.16-31V142.37H742V132h22V108.1Z"/><path class="cls-1" d="M845,262.6V142.37H826.2V132H845v-8.43c0-33.46,15.5-57.12,50-57.12,11.15,0,23.94,4.08,29.92,9l-6,10.06c-5.44-4.08-15.5-8.16-26.38-8.16-27.2,0-34.82,21.76-34.82,47.06V132h74V262.6H918.68V142.37H857.75V262.6Z"/><path class="cls-1" d="M958.64,245.46c7.07,4.35,17.68,9,29.38,9,20.67,0,30.46-11.15,30.46-24.75,0-14.42-8.7-22-27.47-29.65-21.49-8.16-33.18-19.86-33.18-35.63,0-18.77,14.69-35.36,40.26-35.36,12,0,22,3.54,28.83,8.16l-5.17,10.61c-4.35-3.26-12.78-7.89-25.84-7.89-16.59,0-25.3,10.61-25.3,22.58,0,13.6,9.25,19.58,26.93,26.93,21.22,8.16,33.73,18.77,33.73,38.63,0,22.3-17.41,37.54-44.06,37.54A63.45,63.45,0,0,1,954,256.34Z"/><path class="cls-1" d="M1055.36,69.48h12.78v86h.54a48.11,48.11,0,0,1,18-19A49.13,49.13,0,0,1,1113,129c12.24,0,45.15,6.26,45.15,54.67V262.6h-12.78V185.35c0-23.66-9.25-45.15-35.9-45.15-18.5,0-34,13.33-39.44,29.65a36.15,36.15,0,0,0-1.9,12.78v80h-12.78Z"/><path class="cls-1" d="M1299.34,79.27h13.06V205.75c0,46.79-23.12,59.84-49.5,59.84-8.16,0-17.68-2.18-22.3-4.35l2.72-10.61a51.93,51.93,0,0,0,19.58,3.81c23.39,0,36.45-10.88,36.45-51.41Z"/><path class="cls-1" d="M1446.73,230.78c0,11.42.54,21.76,1.09,31.82h-12l-.82-23.12h-.54a50.64,50.64,0,0,1-44.88,26.11c-16.59,0-44.34-8.16-44.34-57.67V132h12.78v73.44c0,28.29,9,48.69,34.82,48.69,19,0,32.91-13.33,38.35-26.38a46.87,46.87,0,0,0,2.72-14.42V132h12.78Z"/><path class="cls-1" d="M1587.68,69.48V232.14c0,9.79.54,21.22,1.09,30.46h-11.7l-.82-24.75h-.54c-6.8,14.42-22.3,27.74-46.51,27.74-32.1,0-56.3-26.93-56.3-65.82-.27-43.52,26.66-70.72,58.75-70.72,22.58,0,36.72,11.7,42.7,22.85h.54V69.48ZM1574.9,183.72a59.77,59.77,0,0,0-1.36-12c-4.62-17.41-19.86-32.1-41.07-32.1-28.56,0-46.51,24.75-46.51,58.75,0,29.38,14.69,56.3,45.7,56.3,18.77,0,36.18-12.24,41.89-34a45.78,45.78,0,0,0,1.36-10.88Z"/><path class="cls-1" d="M1728.46,243.56c0,33.46-6.8,50-17.68,60.38-12,11.42-29.65,15.5-44.34,15.5-15,0-31.55-3.81-41.34-11.15l4.62-10.34a70.86,70.86,0,0,0,38.63,10.88c27.47,0,47.33-14.42,47.33-53V237.3h-.54c-6.8,13.33-22,25.3-45.42,25.3-32.91,0-56-28.56-56-64.19,0-45.42,29.92-69.36,58.75-69.36,25.84,0,38.62,14.14,44.06,25h.54l.54-22h12c-.54,9.79-1.09,20.13-1.09,33.73Zm-12.78-61.47a45,45,0,0,0-1.63-12.51c-5.44-15.78-19.31-29.92-40.53-29.92-27.75,0-46.79,22.85-46.79,57.39,0,29.38,15.5,54.67,46.24,54.67,17.41,0,33.73-10.61,40.26-29.38a40.3,40.3,0,0,0,2.45-13.87Z"/><path class="cls-1" d="M1767.25,196c0,41.89,22.85,58.21,49.78,58.21,19,0,28.83-3.81,36.18-7.34l3.26,10.34c-4.9,2.72-18.22,8.43-41.07,8.43-37.54,0-60.93-27.47-60.93-65.82,0-43.52,25-70.72,58.75-70.72,42.7,0,50.86,40.26,50.86,59a32.36,32.36,0,0,1-.54,7.89Zm83.23-10.34c.27-18.22-7.34-46-38.9-46-28.83,0-41.34,25.84-43.52,46Z"/></g><g id="Layer_3" data-name="Layer 3"><path class="cls-2" d="M329.3,72.36c-.53,27.89-7.08,53.36-19.45,75.69l-3.42,6.18-5.54-4.38c-3.44-2.71-6.83-5.52-10.11-8.23-6.52-5.39-12.68-10.49-19.28-15-26.28-18.25-56.43-28.69-89.62-31.06a130.24,130.24,0,0,0-44.76,4.19c-23.36,6.43-46.2,17.66-71.91,35.36-17.2,11.86-32.87,26-47.32,39.83,1.54,1.36,3.08,2.76,4.59,4.21C46.39,202,70,219.53,94.55,232.77c33,17.74,65,24.17,97.84,19.64a182.21,182.21,0,0,0,75.19-27.31,185.21,185.21,0,0,0,32.37-26.37l5.65-5.71,3.87,7c13,23.63,19.52,48.69,19.94,76.6"/></g></svg>