<svg id="Layer_1" data-name="Layer 1" xmlns="http://www.w3.org/2000/svg" viewBox="0 0 280 80"><defs><style>.cls-1{fill:#2ecc77;}.cls-2{fill:#333;}</style></defs><title>banner</title><path class="cls-1" d="M64.43,40.45a.77.77,0,0,1,0-1A31.41,31.41,0,0,0,69,27.65c.32-1.9.44-3.81.66-5.78H63.53A27.36,27.36,0,0,1,60.21,34.8c-1.77-1.4-3.44-2.91-5.27-4.17a32.31,32.31,0,0,0-16.42-5.69,24.3,24.3,0,0,0-8.3.78,43.35,43.35,0,0,0-13.07,6.42A73.46,73.46,0,0,0,7.8,40v.12c.55.48,1.12,1,1.65,1.47a60.44,60.44,0,0,0,13,9.68,28.83,28.83,0,0,0,18,3.6,33.57,33.57,0,0,0,13.76-5A34.05,34.05,0,0,0,60.14,45a27.52,27.52,0,0,1,3.4,13.09h6.12c-.16-1.74-.23-3.46-.5-5.12A32.55,32.55,0,0,0,64.43,40.45ZM65.55,56A29.32,29.32,0,0,0,62,44L60.6,41.5l-2,2a31.31,31.31,0,0,1-18.44,9.2,24.59,24.59,0,0,1-3.4.23,27.53,27.53,0,0,1-13.28-3.6A57.59,57.59,0,0,1,10.92,40s0,0,0,0a64.1,64.1,0,0,1,7.5-6.12,40.67,40.67,0,0,1,12.43-6.12A21.62,21.62,0,0,1,36.63,27c.59,0,1.17,0,1.77.07a30.21,30.21,0,0,1,15.35,5.32c1.17.82,2.29,1.74,3.48,2.71l1.67,1.37,2,1.56,1.22-2.2A29.07,29.07,0,0,0,65.59,24h1.77c-.11,1.13-.23,2.23-.41,3.32a29.67,29.67,0,0,1-4.26,11,2.85,2.85,0,0,0,0,3.24,30.35,30.35,0,0,1,4.41,11.72c.14.87.21,1.76.28,2.68H65.55Z"/><path class="cls-2" d="M84.16,46.94a9.87,9.87,0,0,0,5,1.41c2.85,0,4.51-1.5,4.51-3.68,0-2-1.15-3.17-4.06-4.29-3.52-1.25-5.7-3.07-5.7-6.11,0-3.36,2.78-5.86,7-5.86a9.8,9.8,0,0,1,4.77,1.06l-.77,2.27a8.59,8.59,0,0,0-4.1-1c-2.94,0-4.06,1.76-4.06,3.23,0,2,1.31,3,4.29,4.16,3.65,1.41,5.5,3.17,5.5,6.34,0,3.33-2.46,6.21-7.55,6.21a11.15,11.15,0,0,1-5.5-1.38Z"/><path class="cls-2" d="M108.9,50.33l-.22-2h-.1a5.77,5.77,0,0,1-4.74,2.3,4.41,4.41,0,0,1-4.74-4.45c0-3.74,3.33-5.79,9.31-5.76v-.32c0-1.28-.35-3.58-3.52-3.58a7.71,7.71,0,0,0-4,1.15l-.64-1.86a9.61,9.61,0,0,1,5.09-1.38c4.74,0,5.89,3.23,5.89,6.34v5.79a21.76,21.76,0,0,0,.26,3.71Zm-.42-7.9c-3.07-.06-6.56.48-6.56,3.49a2.49,2.49,0,0,0,2.66,2.69A3.85,3.85,0,0,0,108.32,46a3,3,0,0,0,.16-.9Z"/><path class="cls-2" d="M115.75,27.62h2.82V50.33h-2.82Z"/><path class="cls-2" d="M126.69,30.4v4.45h4V37h-4v8.35c0,1.92.54,3,2.11,3a6.28,6.28,0,0,0,1.63-.19l.13,2.11a6.88,6.88,0,0,1-2.5.38,3.9,3.9,0,0,1-3-1.18c-.8-.83-1.09-2.21-1.09-4V37h-2.4V34.85h2.4V31.13Z"/><path class="cls-2" d="M134.18,50.33V37H132V34.85h2.18V34c0-4.1,2.4-6.75,6.75-6.75a7.75,7.75,0,0,1,3.94,1l-.8,2.14a5.92,5.92,0,0,0-3.26-.9c-3,0-3.84,2.08-3.84,4.54v.77h9V50.33h-2.78V37H137V50.33Z"/><path class="cls-2" d="M150.24,47.45A7.38,7.38,0,0,0,154,48.57c2,0,3-1,3-2.3s-.8-2.08-2.88-2.85c-2.78-1-4.1-2.53-4.1-4.38,0-2.5,2-4.54,5.34-4.54a7.73,7.73,0,0,1,3.81,1l-.7,2a6,6,0,0,0-3.17-.9c-1.66,0-2.59,1-2.59,2.11s.93,1.86,2.94,2.62c2.69,1,4.06,2.37,4.06,4.67,0,2.72-2.11,4.64-5.79,4.64a8.82,8.82,0,0,1-4.35-1.06Z"/><path class="cls-2" d="M163.3,27.62h2.82v9.66h.06a5.23,5.23,0,0,1,2-2,5.8,5.8,0,0,1,2.88-.8c2.08,0,5.41,1.28,5.41,6.62v9.22h-2.82v-8.9c0-2.5-.93-4.61-3.58-4.61a4,4,0,0,0-3.78,2.82,3.4,3.4,0,0,0-.19,1.34v9.34H163.3Z"/><path class="cls-2" d="M192.35,28.77h2.78V43.2c0,5.73-2.82,7.49-6.53,7.49a9,9,0,0,1-3-.51L186,47.9a6.65,6.65,0,0,0,2.34.42c2.5,0,4-1.12,4-5.34Z"/><path class="cls-2" d="M212.64,46.11c0,1.6,0,3,.13,4.22h-2.5l-.16-2.53H210a5.83,5.83,0,0,1-5.12,2.88c-2.43,0-5.34-1.34-5.34-6.78V34.85h2.82v8.58c0,2.94.9,4.93,3.46,4.93a4.07,4.07,0,0,0,3.71-2.56,4.11,4.11,0,0,0,.26-1.44v-9.5h2.82Z"/><path class="cls-2" d="M230.69,27.62V46.33c0,1.38,0,2.94.13,4h-2.53l-.13-2.69h-.06a5.73,5.73,0,0,1-5.28,3c-3.74,0-6.62-3.17-6.62-7.87,0-5.15,3.17-8.32,6.94-8.32a5.18,5.18,0,0,1,4.67,2.37h.06V27.62Zm-2.82,13.54a4.94,4.94,0,0,0-.13-1.18,4.14,4.14,0,0,0-4.06-3.26c-2.91,0-4.64,2.56-4.64,6,0,3.14,1.54,5.73,4.58,5.73a4.23,4.23,0,0,0,4.13-3.36,4.85,4.85,0,0,0,.13-1.22Z"/><path class="cls-2" d="M248.7,34.85c-.06,1.12-.13,2.37-.13,4.26v9c0,3.55-.7,5.73-2.21,7.07A8.21,8.21,0,0,1,240.74,57a10,10,0,0,1-5.15-1.28l.7-2.14a8.74,8.74,0,0,0,4.54,1.22c2.88,0,5-1.5,5-5.41V47.68h-.06a5.53,5.53,0,0,1-4.93,2.59c-3.84,0-6.59-3.26-6.59-7.55,0-5.25,3.42-8.22,7-8.22A5.15,5.15,0,0,1,246,37.18h.06l.13-2.34ZM245.79,41a4,4,0,0,0-.16-1.28,4.06,4.06,0,0,0-3.94-3c-2.69,0-4.61,2.27-4.61,5.86,0,3,1.54,5.57,4.58,5.57a4.12,4.12,0,0,0,3.9-2.88,4.89,4.89,0,0,0,.22-1.5Z"/><path class="cls-2" d="M254.82,43.1c.06,3.81,2.5,5.38,5.31,5.38a10.17,10.17,0,0,0,4.29-.8l.48,2a12.56,12.56,0,0,1-5.15,1c-4.77,0-7.62-3.14-7.62-7.81s2.75-8.35,7.26-8.35c5.06,0,6.4,4.45,6.4,7.3a10.79,10.79,0,0,1-.1,1.31Zm8.26-2c0-1.79-.74-4.58-3.9-4.58-2.85,0-4.1,2.62-4.32,4.58Z"/></svg>