<?xml version="1.0" encoding="utf-8"?>
<!-- Generator: Adobe Illustrator 19.1.0, SVG Export Plug-In . SVG Version: 6.00 Build 0)  -->
<svg version="1.1" id="Layer_1" xmlns="http://www.w3.org/2000/svg" xmlns:xlink="http://www.w3.org/1999/xlink" x="0px" y="0px"
	 viewBox="-131 222.6 348.4 348.4" style="enable-background:new -131 222.6 348.4 348.4;" xml:space="preserve">
<style type="text/css">
	.st0{fill:#2ECC77;}
</style>
<g>
	<g>
		<path class="st0" d="M188.1,399.4c-1.4-2.1-1-3.6,0.2-5.5c13-20.5,21.8-42.8,25.7-66.7c1.8-10.7,2.5-21.5,3.7-32.6
			c-12.1,0-23.3,0-34.7,0c-0.5,26.2-6.4,50.7-18.7,72.9c-10-7.9-19.4-16.4-29.7-23.5c-27.8-19.3-58.9-29.7-92.6-32.1
			c-15.8-1.1-31.4,0.1-46.8,4.4c-26.9,7.4-50.9,20.5-73.7,36.2c-19,13.1-36.3,28.3-52.8,44.3c0,0.2,0,0.5,0,0.7
			c3.1,2.7,6.3,5.4,9.3,8.3c22.2,21.2,46.3,40,73.4,54.6c31.8,17.1,65.2,25.3,101.5,20.3c28-3.8,53.8-13,77.6-28.2
			c12.1-7.7,23.1-16.8,33.4-27.2c12.7,23.1,18.8,47.6,19.2,73.8c11.5,0,22.6,0,34.5,0c-0.9-9.8-1.3-19.5-2.8-28.9
			C210.8,444.6,201.9,421,188.1,399.4z M194.4,487c-1.9-24.1-8.6-46.8-20.1-67.6l-7.8-14.1l-11.3,11.4
			c-9.9,10.1-20.2,18.4-31.3,25.5C101.8,456.2,78,465,51.2,468.5c-6.4,0.9-12.9,1.3-19.2,1.3c-25,0-49.5-6.6-74.9-20.3
			c-24.2-13-47.4-30.3-70.8-52.7c-0.1-0.1-0.2-0.1-0.2-0.2c15-14,28.6-25.1,42.3-34.5c25-17.3,47.3-28.2,70.1-34.5
			c10.4-2.9,21.4-4.3,32.8-4.3c3.3,0,6.6,0.1,10,0.4c31.9,2.2,61.1,12.3,86.6,30c6.6,4.6,12.9,9.8,19.6,15.3
			c3.1,2.5,6.2,5.1,9.4,7.7l11.1,8.8l6.9-12.4c11.1-20,17.7-42.4,19.7-66.8h10c-0.6,6.4-1.3,12.6-2.3,18.7
			c-3.6,21.7-11.6,42.7-24,62.3c-4.9,7.7-2.8,14.2-0.2,18.3c12.8,20.1,21.2,42.3,24.9,66.1c0.8,4.9,1.2,9.9,1.6,15.1h-10.2V487z"/>
	</g>
</g>
</svg>
