<svg xmlns="http://www.w3.org/2000/svg" viewBox="0 0 1961.73 349"><defs><style>.cls-1{fill:#fff;}.cls-2{fill:none;stroke:#2ecc77;stroke-miterlimit:10;stroke-width:12px;}</style></defs><title>Saltfish Logo 5</title><g id="Layer_1" data-name="Layer 1"><path class="cls-1" d="M470.41,233.92a83.86,83.86,0,0,0,42.43,12c24.21,0,38.35-12.78,38.35-31.28,0-17.14-9.79-26.93-34.54-36.45-29.92-10.61-48.42-26.11-48.42-52,0-28.56,23.66-49.78,59.3-49.78,18.77,0,32.37,4.35,40.53,9l-6.53,19.31A73,73,0,0,0,526.71,96c-25,0-34.54,15-34.54,27.47,0,17.14,11.15,25.57,36.45,35.36,31,12,46.78,26.93,46.78,53.86,0,28.29-20.94,52.77-64.19,52.77-17.68,0-37-5.17-46.79-11.7Z"/><path class="cls-1" d="M674.44,262.75l-1.9-16.59h-.82c-7.34,10.34-21.49,19.58-40.26,19.58-26.66,0-40.26-18.77-40.26-37.81,0-31.82,28.29-49.23,79.15-49v-2.72c0-10.88-3-30.46-29.92-30.46-12.24,0-25,3.81-34.27,9.79l-5.44-15.78c10.88-7.07,26.66-11.7,43.25-11.7,40.26,0,50,27.47,50,53.86V231.2c0,11.42.54,22.58,2.18,31.55Zm-3.54-67.18c-26.11-.54-55.76,4.08-55.76,29.65,0,15.5,10.34,22.85,22.58,22.85,17.14,0,28-10.88,31.83-22a25,25,0,0,0,1.36-7.62Z"/><path class="cls-1" d="M725.13,69.63h23.94V262.75H725.13Z"/><path class="cls-1" d="M810.73,93.29V131.1H845v18.22H810.73v71c0,16.32,4.62,25.57,18,25.57a53.25,53.25,0,0,0,13.87-1.63l1.09,18c-4.62,1.9-12,3.26-21.22,3.26-11.15,0-20.13-3.54-25.84-10.06-6.8-7.07-9.25-18.77-9.25-34.27V149.32h-20.4V131.1h20.4V99.55Z"/><path class="cls-1" d="M874.81,262.75V149.32h-18.5V131.1h18.5V124c0-34.82,20.4-57.39,57.39-57.39,12.24,0,26.66,3.81,33.46,8.7l-6.8,18.22c-5.71-4.08-16-7.62-27.74-7.62-25.3,0-32.64,17.68-32.64,38.62v6.53h76.43V262.75H951.25V149.32H898.48V262.75Z"/><path class="cls-1" d="M1003,238.27c7.07,4.62,19.58,9.52,31.55,9.52,17.41,0,25.57-8.7,25.57-19.58,0-11.42-6.8-17.68-24.48-24.21-23.66-8.43-34.82-21.49-34.82-37.26,0-21.22,17.14-38.62,45.42-38.62,13.33,0,25,3.81,32.37,8.16l-6,17.41a51.23,51.23,0,0,0-26.93-7.62c-14.14,0-22,8.16-22,18,0,10.88,7.89,15.78,25,22.3,22.85,8.7,34.54,20.13,34.54,39.71,0,23.12-18,39.44-49.23,39.44-14.42,0-27.74-3.54-37-9Z"/><path class="cls-1" d="M1106.12,69.63h23.94v82.14h.54a44.42,44.42,0,0,1,17.14-16.86,49.26,49.26,0,0,1,24.48-6.8c17.68,0,46,10.88,46,56.3v78.34h-23.94V187.13c0-21.22-7.89-39.17-30.46-39.17-15.5,0-27.74,10.88-32.1,23.94-1.36,3.26-1.63,6.8-1.63,11.42v79.42h-23.94Z"/><path class="cls-1" d="M1353.09,79.42h23.66V202.09c0,48.69-23.94,63.65-55.49,63.65-8.7,0-19.31-1.9-25.3-4.35l3.54-19.31a56.44,56.44,0,0,0,19.86,3.54c21.22,0,33.73-9.52,33.73-45.42Z"/><path class="cls-1" d="M1518.87,226.85c0,13.6.27,25.57,1.09,35.9h-21.22l-1.36-21.49h-.54a49.53,49.53,0,0,1-43.52,24.48c-20.67,0-45.42-11.42-45.42-57.67v-77h23.94V204c0,25,7.62,41.89,29.38,41.89,16,0,27.2-11.15,31.55-21.76a35,35,0,0,0,2.18-12.24V131.1h23.94Z"/><path class="cls-1" d="M1666.13,69.63V228.75c0,11.7.27,25,1.09,34h-21.49l-1.09-22.85h-.54c-7.34,14.69-23.39,25.84-44.88,25.84-31.82,0-56.3-26.93-56.3-66.91-.27-43.79,26.93-70.72,59-70.72,20.13,0,33.73,9.52,39.71,20.13h.54V69.63ZM1642.2,184.69a42.23,42.23,0,0,0-1.09-10.06c-3.54-15.23-16.59-27.74-34.54-27.74-24.75,0-39.44,21.76-39.44,50.86,0,26.66,13.06,48.69,38.9,48.69,16,0,30.74-10.61,35.09-28.56a41.56,41.56,0,0,0,1.09-10.34Z"/><path class="cls-1" d="M1813,131.1c-.54,9.52-1.09,20.13-1.09,36.18v76.43c0,30.19-6,48.69-18.77,60.11-12.78,12-31.28,15.78-47.87,15.78-15.78,0-33.18-3.81-43.79-10.88l6-18.22c8.7,5.44,22.3,10.34,38.63,10.34,24.48,0,42.43-12.78,42.43-46V240.17H1788c-7.34,12.24-21.49,22-41.89,22-32.64,0-56-27.74-56-64.19,0-44.61,29.1-69.9,59.3-69.9,22.85,0,35.36,12,41.07,22.85h.54L1792,131.1Zm-24.75,52a34.09,34.09,0,0,0-1.36-10.88c-4.35-13.87-16-25.3-33.46-25.3-22.85,0-39.17,19.31-39.17,49.78,0,25.84,13.06,47.33,38.9,47.33,14.69,0,28-9.25,33.18-24.48a41.63,41.63,0,0,0,1.9-12.78Z"/><path class="cls-1" d="M1858.65,201.28c.54,32.37,21.22,45.7,45.15,45.7,17.14,0,27.47-3,36.45-6.8l4.08,17.14c-8.43,3.81-22.85,8.16-43.79,8.16-40.53,0-64.74-26.66-64.74-66.37s23.39-71,61.75-71c43,0,54.4,37.81,54.4,62a90.18,90.18,0,0,1-.82,11.15Zm70.18-17.14c.27-15.23-6.26-38.9-33.18-38.9-24.21,0-34.82,22.3-36.72,38.9Z"/></g><g id="Layer_2" data-name="Layer 2"><path class="cls-2" d="M320.22,270.75a159.16,159.16,0,0,0-19.76-70.69l-3.87-7-5.65,5.71a185.14,185.14,0,0,1-32.36,26.36,182.21,182.21,0,0,1-75.19,27.32,148.35,148.35,0,0,1-20.17,1.4c-25.95,0-51.35-6.88-77.68-21C61,219.53,37.39,202,13.44,179.11c-1.61-1.56-3.27-3.06-4.93-4.52,17.19-16.36,32.45-29,47.7-39.51,25.7-17.7,48.55-28.93,71.89-35.35a127.67,127.67,0,0,1,34.34-4.57c3.41,0,6.93.12,10.45.37,33.18,2.36,63.33,12.81,89.6,31,6.62,4.56,12.78,9.65,19.3,15,3.28,2.71,6.67,5.52,10.11,8.23l5.54,4.38,3.42-6.18c11.5-20.75,18-44.21,19.25-69.81"/></g></svg>