<?xml version="1.0" encoding="utf-8"?>
<!-- Generator: Adobe Illustrator 19.1.0, SVG Export Plug-In . SVG Version: 6.00 Build 0)  -->
<svg version="1.1" id="Layer_1" xmlns="http://www.w3.org/2000/svg" xmlns:xlink="http://www.w3.org/1999/xlink" x="0px" y="0px"
	 viewBox="0 0 280 80" style="enable-background:new 0 0 280 80;" xml:space="preserve">
<style type="text/css">
	.st0{fill:#2ECC77;}
	.st1{fill:#333333;}
	.st2{font-family:'MyriadPro-Regular';}
	.st3{font-size:32px;}
</style>
<g>
	<g>
		<path class="st0" d="M70.7,40.5c-0.2-0.4-0.2-0.6,0-1c2.3-3.6,3.9-7.6,4.6-11.8c0.3-1.9,0.4-3.8,0.7-5.8c-2.1,0-4.1,0-6.2,0
			c-0.1,4.6-1.1,9-3.3,12.9c-1.8-1.4-3.4-2.9-5.3-4.2c-4.9-3.4-10.4-5.3-16.4-5.7c-2.8-0.2-5.6,0-8.3,0.8c-4.8,1.3-9,3.6-13.1,6.4
			c-3.4,2.3-6.4,5-9.4,7.9c0,0,0,0.1,0,0.1c0.5,0.5,1.1,1,1.6,1.5c3.9,3.8,8.2,7.1,13,9.7c5.6,3,11.6,4.5,18,3.6
			c5-0.7,9.5-2.3,13.8-5c2.1-1.4,4.1-3,5.9-4.8c2.3,4.1,3.3,8.4,3.4,13.1c2,0,4,0,6.1,0c-0.2-1.7-0.2-3.5-0.5-5.1
			C74.7,48.5,73.1,44.3,70.7,40.5z M71.8,56c-0.3-4.3-1.5-8.3-3.6-12l-1.4-2.5l-2,2c-1.8,1.8-3.6,3.3-5.5,4.5
			c-3.9,2.5-8.1,4-12.9,4.7C45.2,52.9,44.1,53,43,53c-4.4,0-8.8-1.2-13.3-3.6C25.4,47,21.3,44,17.1,40c0,0,0,0,0,0
			c2.7-2.5,5.1-4.5,7.5-6.1c4.4-3.1,8.4-5,12.4-6.1c1.8-0.5,3.8-0.8,5.8-0.8c0.6,0,1.2,0,1.8,0.1c5.7,0.4,10.8,2.2,15.4,5.3
			c1.2,0.8,2.3,1.7,3.5,2.7c0.5,0.4,1.1,0.9,1.7,1.4l2,1.6l1.2-2.2c2-3.5,3.1-7.5,3.5-11.8h1.8c-0.1,1.1-0.2,2.2-0.4,3.3
			c-0.6,3.8-2.1,7.6-4.3,11c-0.9,1.4-0.5,2.5,0,3.2c2.3,3.6,3.8,7.5,4.4,11.7c0.1,0.9,0.2,1.8,0.3,2.7L71.8,56L71.8,56z"/>
	</g>
</g>
<text transform="matrix(1 0 0 1 88.3333 50.3337)" class="st1 st2 st3">Saltfish Judge</text>
</svg>
